<svg width="126" height="39" viewBox="0 0 126 39" fill="none" xmlns="http://www.w3.org/2000/svg">
<path d="M0.591619 30V0.181817H12.3558C14.6174 0.181817 16.5442 0.613754 18.136 1.47763C19.7279 2.33179 20.9412 3.52083 21.7759 5.04474C22.6204 6.55895 23.0426 8.30611 23.0426 10.2862C23.0426 12.2663 22.6155 14.0135 21.7614 15.5277C20.9072 17.0419 19.6696 18.2212 18.0487 19.0657C16.4374 19.9102 14.4864 20.3324 12.1957 20.3324H4.69744V15.2802H11.1765C12.3898 15.2802 13.3896 15.0715 14.1758 14.6541C14.9717 14.227 15.5638 13.6398 15.9521 12.8924C16.35 12.1353 16.549 11.2666 16.549 10.2862C16.549 9.29616 16.35 8.43229 15.9521 7.6946C15.5638 6.94721 14.9717 6.36967 14.1758 5.962C13.3799 5.54463 12.3704 5.33594 11.1474 5.33594H6.89595V30H0.591619ZM30.8502 38.3864C30.064 38.3864 29.3263 38.3233 28.6372 38.1971C27.9577 38.0806 27.3947 37.9302 26.9482 37.7457L28.346 33.1158C29.074 33.339 29.7291 33.4603 30.3115 33.4798C30.9036 33.4992 31.4132 33.3633 31.8403 33.0721C32.2771 32.7809 32.6314 32.2859 32.9031 31.587L33.2671 30.6406L25.2448 7.63636H31.7675L36.3975 24.0597H36.6304L41.3041 7.63636H47.8705L39.1784 32.4169C38.761 33.6205 38.1932 34.6688 37.4749 35.5618C36.7663 36.4645 35.8685 37.1585 34.7813 37.6438C33.6942 38.1388 32.3838 38.3864 30.8502 38.3864ZM61.7313 30H51.161V0.181817H61.8186C64.8179 0.181817 67.3998 0.778764 69.5644 1.97266C71.7289 3.15684 73.3936 4.86032 74.5583 7.0831C75.7328 9.30587 76.32 11.9654 76.32 15.0618C76.32 18.1678 75.7328 20.8371 74.5583 23.0696C73.3936 25.3021 71.7192 27.0153 69.5352 28.2092C67.361 29.4031 64.7597 30 61.7313 30ZM57.4653 24.5984H61.4692C63.3328 24.5984 64.9004 24.2683 66.172 23.6083C67.4532 22.9386 68.4142 21.9048 69.0548 20.5071C69.7051 19.0997 70.0303 17.2846 70.0303 15.0618C70.0303 12.8584 69.7051 11.0579 69.0548 9.66016C68.4142 8.26243 67.4581 7.23355 66.1865 6.57351C64.915 5.91347 63.3474 5.58345 61.4838 5.58345H57.4653V24.5984ZM91.0653 30.4368C88.7649 30.4368 86.7848 29.9709 85.125 29.0391C83.4749 28.0975 82.2034 26.7678 81.3104 25.0497C80.4174 23.322 79.9709 21.2788 79.9709 18.9201C79.9709 16.6197 80.4174 14.6007 81.3104 12.8633C82.2034 11.1258 83.4603 9.77178 85.0813 8.80113C86.712 7.83049 88.6242 7.34517 90.8178 7.34517C92.2932 7.34517 93.6667 7.58298 94.9382 8.05859C96.2195 8.5245 97.3357 9.22822 98.2869 10.1697C99.2479 11.1113 99.9953 12.2955 100.529 13.7223C101.063 15.1394 101.33 16.7992 101.33 18.7017V20.4052H82.446V16.5614H95.4915C95.4915 15.6684 95.2973 14.8774 94.9091 14.1882C94.5208 13.4991 93.9821 12.9603 93.293 12.5721C92.6135 12.1741 91.8224 11.9751 90.9197 11.9751C89.9782 11.9751 89.1435 12.1935 88.4155 12.6303C87.6972 13.0574 87.1342 13.6349 86.7266 14.3629C86.3189 15.0812 86.1102 15.882 86.1005 16.7653V20.4197C86.1005 21.5263 86.3043 22.4824 86.712 23.288C87.1294 24.0936 87.7166 24.7148 88.4737 25.1516C89.2308 25.5884 90.1287 25.8068 91.1673 25.8068C91.8564 25.8068 92.4873 25.7098 93.06 25.5156C93.6327 25.3215 94.1229 25.0303 94.5305 24.642C94.9382 24.2538 95.2488 23.7782 95.4624 23.2152L101.199 23.5938C100.908 24.9721 100.311 26.1757 99.408 27.2045C98.515 28.2237 97.36 29.0196 95.9428 29.5923C94.5354 30.1553 92.9096 30.4368 91.0653 30.4368ZM125.626 7.63636L117.808 30H110.819L103.001 7.63636H109.552L114.197 23.6374H114.43L119.06 7.63636H125.626Z" fill="#5D39ED"/>
</svg>
